<svg width="375" height="57" viewBox="0 0 375 57" fill="none" xmlns="http://www.w3.org/2000/svg">
<path d="M209 117C209 92.0696 188.35 68.1604 151.593 50.532C114.836 32.9035 64.9824 23 13 23C-38.9824 23 -88.8358 32.9035 -125.593 50.532C-162.35 68.1604 -183 92.0696 -183 117L13 117H209Z" fill="#FFA800"/>
<path d="M457 76.5C457 56.2109 443.567 36.7529 419.656 22.4063C395.745 8.0598 363.315 1.53178e-06 329.5 0C295.685 -1.53178e-06 263.255 8.05979 239.344 22.4063C215.433 36.7529 202 56.2109 202 76.5L329.5 76.5H457Z" fill="#FFA800"/>
<path d="M808.5 61.9999H-65H-95V6.99994C-70.6667 13.4999 -8.6 57.2999 73 28.4999C154.6 -0.300093 224.333 13.8332 249 24.4999C281 35.3333 378.8 38.9999 452 12.9999C525.2 -13.0001 612.333 6.49992 643 24.4999C660.333 37.3333 701.5 59.4144 754.5 38.4053C799.5 20.5675 819.833 29.572 815.5 28.9053L808.5 61.9999Z" fill="#621A7B"/>
</svg>
