<svg width="980" height="62" viewBox="0 0 980 62" fill="none" xmlns="http://www.w3.org/2000/svg">
<path d="M392 109C392 84.0696 371.35 60.1604 334.593 42.532C297.836 24.9035 247.982 15 196 15C144.018 15 94.1642 24.9035 57.4071 42.532C20.65 60.1604 7.84913e-06 84.0696 0 109L196 109H392Z" fill="#FFC147"/>
<path d="M1135 101C1135 76.0696 1114.35 52.1604 1077.59 34.532C1040.84 16.9035 990.982 7 939 7C887.018 7 837.164 16.9035 800.407 34.532C763.65 52.1604 743 76.0696 743 101L939 101H1135Z" fill="#FFC147"/>
<path d="M638 76.5C638 56.2109 624.567 36.7529 600.656 22.4063C576.745 8.0598 544.315 1.53178e-06 510.5 0C476.685 -1.53178e-06 444.255 8.05979 420.344 22.4063C396.433 36.7529 383 56.2109 383 76.5L510.5 76.5H638Z" fill="#FFC147"/>
<path d="M989.5 61.9999H116H86V6.99994C110.333 13.4999 172.4 57.2999 254 28.4999C335.6 -0.300093 405.333 13.8332 430 24.4999C462 35.3333 559.8 38.9999 633 12.9999C706.2 -13.0001 793.333 6.49992 824 24.4999C841.333 37.3333 882.5 59.4144 935.5 38.4053C980.5 20.5675 1000.83 29.572 996.5 28.9053L989.5 61.9999Z" fill="url(#paint0_linear)"/>
<defs>
<linearGradient id="paint0_linear" x1="86" y1="-7.07346" x2="91.092" y2="111.942" gradientUnits="userSpaceOnUse">
<stop stop-color="#72248D"/>
<stop offset="1" stop-color="#54106B"/>
</linearGradient>
</defs>
</svg>
